<svg xml:space="preserve" fill="#ebebeb" style="fill-rule:evenodd;clip-rule:evenodd;stroke-linecap:round;stroke-linejoin:round;stroke-miterlimit:1.5" viewBox="0 0 323 305" xmlns="http://www.w3.org/2000/svg"><path d="m640.8 448 .2 71.5-74.5 74.5h-43l-36 36h-12.1c-10.1 0-12.4-.3-13.5-1.7-1.1-1.2-1.4-5.7-1.5-17.7l-.2-16.1-26.3-.5-26.4-.5-.3-89.4-.2-89.3 3.9-8.7c2.2-4.7 6.2-13.4 9-19.4L425 376l107.8.2 107.7.3zm-204.6 24.2.3 79.3 50 1 1 37 19-18.8 19.1-18.7h28.9l29-.1 20.8-20.2 20.7-20.2V393H436zm78.3 23.3h-19l-.3-30.3-.2-30.3 9.7.3 9.8.3zm63 0h-20l-.3-29c-.1-15.9 0-29.6.3-30.3.3-.9 2.9-1.2 10.2-1l9.8.3z" style="fill:#fff;stroke:#fff;stroke-width:1px" transform="translate(-365 -348)"/></svg>