<svg viewBox="0 0 24 24" xmlns="http://www.w3.org/2000/svg" xml:space="preserve" style="fill-rule:evenodd;clip-rule:evenodd;stroke-linejoin:round;stroke-miterlimit:2"><path d="M18.16 5.87c.34 1.309.34 4.08.34 4.08s0 2.771-.34 4.08a2.132 2.132 0 0 1-1.53 1.53c-1.309.34-6.63.34-6.63.34s-5.321 0-6.63-.34a2.132 2.132 0 0 1-1.53-1.53c-.34-1.309-.34-4.08-.34-4.08s0-2.771.34-4.08a2.183 2.183 0 0 1 1.53-1.53C4.679 4 10 4 10 4s5.321 0 6.63.34a2.183 2.183 0 0 1 1.53 1.53M8.3 12.5l4.42-2.55L8.3 7.4v5.1z" style="fill:#fff;fill-rule:nonzero" transform="translate(-.94 -.935) scale(1.29399)"/></svg>