<svg xml:space="preserve" fill="#ebebeb" style="fill-rule:evenodd;clip-rule:evenodd;stroke-linecap:round;stroke-linejoin:round" viewBox="0 0 800 800" xmlns="http://www.w3.org/2000/svg"><path d="M3 7.206v9.588c0 1.006 0 1.508.199 1.741.172.202.431.31.696.289.305-.024.661-.38 1.372-1.091l4.794-4.794c.329-.329.493-.493.555-.682a.84.84 0 0 0 0-.514c-.062-.189-.226-.353-.555-.682L5.267 6.267C4.556 5.556 4.2 5.2 3.895 5.176a.83.83 0 0 0-.696.289C3 5.698 3 6.2 3 7.206" style="fill:none;fill-rule:nonzero;stroke:#fff;stroke-width:2px" transform="translate(172.397)scale(33.3333)"/></svg>